#tb 0: 1/25
0,          0,          0,        1,   149760, 0x88619f80
0,          1,          1,        1,   149760, 0x550bdaf0
0,          2,          2,        1,   149760, 0x99440a14
0,          3,          3,        1,   149760, 0xcc2c2049
0,          4,          4,        1,   149760, 0x46927368
0,          5,          5,        1,   149760, 0x53cdb3fe
0,          6,          6,        1,   149760, 0x654df025
0,          7,          7,        1,   149760, 0x024d24bc
0,          8,          8,        1,   149760, 0x409138c2
0,          9,          9,        1,   149760, 0xfbb47c48
0,         10,         10,        1,   149760, 0x18caa19d
0,         11,         11,        1,   149760, 0x0f88c2e5
0,         12,         12,        1,   149760, 0x1c16aa2d
0,         13,         13,        1,   149760, 0x60bfcce8
0,         14,         14,        1,   149760, 0x1c38e3d3
0,         15,         15,        1,   149760, 0x0d5b044a
0,         16,         16,        1,   149760, 0x93d21593
0,         17,         17,        1,   149760, 0xdf283910
0,         18,         18,        1,   149760, 0x03324c23
0,         19,         19,        1,   149760, 0x3b175b7b
0,         20,         20,        1,   149760, 0xb91b9a7e
0,         21,         21,        1,   149760, 0x734fbbe7
0,         22,         22,        1,   149760, 0xfc3fea48
0,         23,         23,        1,   149760, 0x6609103e
0,         24,         24,        1,   149760, 0x3f5916fa
0,         25,         25,        1,   149760, 0x08e43f4d
0,         26,         26,        1,   149760, 0xc84e5471
0,         27,         27,        1,   149760, 0xbd4e5c8d
0,         28,         28,        1,   149760, 0x4a4d3995
0,         29,         29,        1,   149760, 0x662163c0
0,         30,         30,        1,   149760, 0xda28671f
0,         31,         31,        1,   149760, 0x19e1878e
0,         32,         32,        1,   149760, 0x19807e67
0,         33,         33,        1,   149760, 0xf7aea3b6
0,         34,         34,        1,   149760, 0x53f482c9
0,         35,         35,        1,   149760, 0x7184b3ae
0,         36,         36,        1,   149760, 0xb425b53d
0,         37,         37,        1,   149760, 0xfb7cce6e
0,         38,         38,        1,   149760, 0x820bc1ef
0,         39,         39,        1,   149760, 0xbb0de30a
0,         40,         40,        1,   149760, 0xbdcb0af2
0,         41,         41,        1,   149760, 0xf2404ff7
0,         42,         42,        1,   149760, 0xd6636f0a
0,         43,         43,        1,   149760, 0x0e908b06
0,         44,         44,        1,   149760, 0x36a158f4
0,         45,         45,        1,   149760, 0x178d5bbd
0,         46,         46,        1,   149760, 0xba9a6d14
0,         47,         47,        1,   149760, 0x89145886
0,         48,         48,        1,   149760, 0x6ec26794
0,         49,         49,        1,   149760, 0xf6ac7551
0,         50,         50,        1,   149760, 0xc829c66f
0,         51,         51,        1,   149760, 0x64d50d50
0,         52,         52,        1,   149760, 0x215dd855
0,         53,         53,        1,   149760, 0x8b2ffec3
0,         54,         54,        1,   149760, 0x1a0b7bcd
0,         55,         55,        1,   149760, 0x14a5ad0e
0,         56,         56,        1,   149760, 0x88c34286
0,         57,         57,        1,   149760, 0xe2706fa9
0,         58,         58,        1,   149760, 0x8de2decf
0,         59,         59,        1,   149760, 0x1b37e5d7
0,         60,         60,        1,   149760, 0xaf8d175a
0,         61,         61,        1,   149760, 0x0f4aec5f
0,         62,         62,        1,   149760, 0x3818df10
0,         63,         63,        1,   149760, 0xe791d309
0,         64,         64,        1,   149760, 0x6ad9aa0d
0,         65,         65,        1,   149760, 0x1e1ab8a1
0,         66,         66,        1,   149760, 0xd0ef526a
0,         67,         67,        1,   149760, 0x45da3cf1
0,         68,         68,        1,   149760, 0x3cb4eee6
0,         69,         69,        1,   149760, 0x3e816ebc
0,         70,         70,        1,   149760, 0x29d45e93
0,         71,         71,        1,   149760, 0x824b5bc2
0,         72,         72,        1,   149760, 0x015e6fd2
